<?xml version="1.0" encoding="UTF-8" standalone="no"?>
<!-- Created with Inkscape (http://www.inkscape.org/) -->

<svg
   width="50.696281mm"
   height="52.41832mm"
   viewBox="0 0 50.696281 52.41832"
   version="1.1"
   id="svg1"
   xml:space="preserve"
   xmlns="http://www.w3.org/2000/svg"
   xmlns:svg="http://www.w3.org/2000/svg"><defs
     id="defs1" /><g
     transform="matrix(0.00664399,0,0,-0.00664399,-10.124565,60.380088)"
     fill="#000000"
     stroke="none"
     id="g2"
     style="fill:#6a89a7;fill-opacity:1;stroke:none;stroke-width:75.256;stroke-dasharray:none;stroke-opacity:1"><path
       d="m 4149,9075 c -119,-16 -266,-55 -363,-95 -186,-78 -301,-184 -666,-616 -448,-530 -852,-1008 -965,-1139 -277,-324 -385,-475 -475,-660 -91,-189 -131,-334 -151,-556 -22,-247 21,-546 242,-1644 134,-671 187,-872 278,-1069 91,-197 263,-409 440,-542 117,-87 613,-380 1785,-1051 591,-339 804,-432 1104,-484 481,-82 955,76 1651,548 433,294 800,601 1202,1002 540,540 793,943 901,1430 18,80 22,130 22,306 1,227 3,216 -74,545 -21,91 -78,334 -125,540 -243,1058 -333,1430 -376,1563 -153,469 -558,814 -1401,1196 -343,155 -588,246 -1033,381 -508,154 -886,242 -1325,309 -334,52 -494,60 -671,36 z m 566,-189 c 793,-121 1811,-421 2470,-727 640,-298 1020,-592 1182,-914 105,-207 131,-497 69,-740 -57,-221 -192,-524 -328,-736 C 7678,5099 6803,4291 5830,3663 5265,3299 4688,2997 4260,2843 c -404,-146 -679,-200 -973,-190 -372,13 -606,115 -860,376 -253,260 -321,442 -492,1296 -202,1008 -248,1297 -249,1550 -1,244 31,394 134,612 85,180 154,271 630,838 130,154 332,395 450,535 118,140 244,292 280,337 36,45 66,80 68,78 2,-2 -2,-49 -9,-105 l -13,-101 -85,-102 c -47,-56 -205,-244 -351,-417 -647,-767 -762,-911 -830,-1041 -169,-325 -197,-596 -114,-1089 62,-371 265,-1404 313,-1592 67,-267 148,-468 235,-586 111,-149 280,-299 415,-366 179,-90 430,-130 661,-106 257,26 455,77 878,225 10,4 9,12 -2,40 -9,20 -44,162 -80,318 -66,288 -77,338 -166,747 -28,129 -89,406 -135,615 -514,2320 -605,2798 -605,3155 1,364 87,617 275,805 115,115 247,180 440,216 84,16 136,18 320,14 125,-2 263,-10 320,-19 z M 8623,6340 c 37,-132 56,-211 162,-670 36,-157 97,-415 135,-575 89,-378 104,-476 97,-630 -16,-350 -157,-693 -434,-1063 -309,-413 -851,-926 -1394,-1323 -516,-377 -902,-584 -1269,-682 -108,-29 -126,-31 -300,-31 -156,0 -201,3 -290,22 -323,71 -509,165 -1740,883 l -385,224 99,3 99,3 81,-42 c 45,-24 151,-83 236,-133 538,-312 980,-560 1140,-640 305,-152 508,-209 750,-210 169,0 311,29 522,110 305,116 793,423 1238,778 398,317 810,718 1068,1039 298,371 462,761 462,1099 0,154 -13,234 -95,578 -36,151 -97,412 -136,580 -38,168 -88,383 -111,478 l -41,174 28,89 c 17,53 32,84 36,77 4,-7 23,-69 42,-138 z"
       id="path1"
       style="fill:#484a6e;fill-opacity:1;stroke:none;stroke-width:75.256;stroke-dasharray:none;stroke-opacity:1" /><path
       d="m 4167,8790 c -363,-42 -591,-253 -664,-617 -27,-136 -25,-489 5,-687 12,-82 23,-150 24,-152 2,-1 57,-10 123,-19 1100,-149 2206,-444 3016,-803 171,-76 484,-233 614,-307 218,-125 469,-304 608,-434 26,-24 49,-42 51,-40 2,2 38,58 80,124 85,133 152,265 221,440 76,193 96,279 102,447 6,160 -1,222 -43,348 -165,508 -1009,1005 -2384,1405 -458,133 -868,225 -1245,280 -126,19 -405,27 -508,15 z"
       id="path2"
       style="fill:#353839;fill-opacity:1;stroke:none;stroke-width:75.256;stroke-dasharray:none;stroke-opacity:1" /></g></svg>
