<?xml version="1.0" encoding="UTF-8" standalone="no"?>
<svg
   width="100mm"
   height="100mm"
   viewBox="0 0 100 100"
   version="1.1"
   id="svg1"
   xmlns="http://www.w3.org/2000/svg"
   xmlns:svg="http://www.w3.org/2000/svg">
  <defs id="defs1" />
  <g id="layer1" transform="translate(-35.40847,-72.155938)">
    <circle
       style="fill:#6a89a7;fill-opacity:0.08;stroke:none;stroke-width:0.1;stroke-dasharray:none;stroke-opacity:1"
       id="path1-0"
       cx="85.40847"
       cy="122.15593"
       r="50" />
    <path
       d="m 46.477266,153.53068 17.349846,-17.73277 c 7.268804,-0.28544 14.486638,-0.0423 21.853963,-0.0124 l 7.422286,-8.7266 0.0041,-0.44958 c 0,0 -0.02373,-23.39461 -0.02894,-23.54999 0,0 0,-5.1e-4 0,-5.1e-4 2.4e-5,-2.6e-4 4.62e-4,-0.001 5.17e-4,-0.002 0,0 0,-5.2e-4 0,-5.2e-4 0,0 5.17e-4,-5.2e-4 5.17e-4,-5.2e-4 0,0 5.17e-4,-5.1e-4 5.17e-4,-5.1e-4 0,0 5.16e-4,-5.2e-4 5.16e-4,-5.2e-4 0,0 5.17e-4,0 5.17e-4,0 0,0 5.17e-4,-5.2e-4 5.17e-4,-5.2e-4 0.0052,-0.002 0.01577,4.1e-4 0.0217,-10e-4 2.962174,-0.76846 5.082377,-3.486729 5.082377,-6.647141 -2.86e-4,-3.789523 -3.028058,-6.861658 -6.762895,-6.861597 -3.734594,2.89e-4 -6.762092,3.071803 -6.762378,6.86108 0,3.048058 1.972664,5.684738 4.770252,6.557738 0.120824,0.0377 0.14148,0.0365 0.144694,0.0357 v 22.32267 l -5.636865,6.89208 h -21.54955 c -5.294377,5.22132 -13.837644,14.09502 -18.104838,18.38079 a 50,50 0 0 0 2.193147,2.93574 z M 91.422843,92.975203 c 1.867539,-2.07e-4 3.381562,1.535915 3.381706,3.430799 2.02e-4,1.895133 -1.513922,3.431523 -3.381706,3.431315 -1.867542,-1.47e-4 -3.381392,-1.536427 -3.381189,-3.431315 1.42e-4,-1.894638 1.513892,-3.430656 3.381189,-3.430799 z"
       style="fill:#ffffff;fill-opacity:0.08;stroke:none;stroke-width:0.1"
       id="path14" />
    <path
       d="m 56.981535,163.28874 15.159281,-16.65945 21.933545,0.0506 15.363399,-19.14871 c 0,0 5.2e-4,0 5.2e-4,0 0,0 5.2e-4,-5.1e-4 5.2e-4,-5.1e-4 0,0 5.1e-4,0 5.1e-4,0 0.004,-0.002 0.0206,-0.006 0.0806,-0.007 v -5.1e-4 c 3.53738,-0.10895 6.32629,-3.20715 6.32623,-6.84817 -2.8e-4,-3.78951 -3.02807,-6.86114 -6.7629,-6.86108 -3.7346,2.8e-4 -6.7621,3.07179 -6.76237,6.86108 -7e-5,2.36394 1.19932,4.56164 3.17396,5.81619 l -13.577463,16.55454 -21.522717,0.003 c -0.283188,0.29213 -8.884668,9.81895 -16.327169,18.06557 a 50,50 0 0 0 2.914034,2.17454 z m 52.101725,-46.04473 c 1.86754,-2e-4 3.38156,1.5359 3.38171,3.43079 2e-4,1.89514 -1.51392,3.43153 -3.38171,3.43132 -1.86754,-1.5e-4 -3.38137,-1.53645 -3.38118,-3.43132 1.4e-4,-1.89463 1.51388,-3.43064 3.38118,-3.43079 z"
       style="fill:#ffffff;fill-opacity:0.08;stroke:none;stroke-width:0.1"
       id="path15" />
    <path
       d="m 70.709896,169.94673 11.834936,-13.08034 h 21.572848 l 0.3917,-0.005 6.54017,-7.98763 c 1.21436,1.02407 2.74371,1.58491 4.32274,1.58492 3.73509,6e-5 6.76295,-3.07234 6.76289,-6.86212 -2.9e-4,-3.78951 -3.02806,-6.86114 -6.76289,-6.86108 v 5.2e-4 c -3.73459,2.9e-4 -6.76208,3.07181 -6.76238,6.86108 -2.8e-4,1.14157 0.18391,1.7391 0.25011,1.88516 0.006,0.0124 -0.004,0.0237 -0.01,0.0305 l -6.35516,7.77058 H 81.037948 l -0.09095,0.003 -13.889075,15.38046 a 50,50 0 0 0 3.651974,1.28002 z m 44.662394,-29.78009 c 1.86755,-2.1e-4 3.38155,1.53538 3.3817,3.43028 2e-4,1.89513 -1.51391,3.43152 -3.3817,3.43131 -1.86755,-1.5e-4 -3.3814,-1.53642 -3.38119,-3.43131 1.5e-4,-1.89464 1.5139,-3.43013 3.38119,-3.43028 z"
       style="fill:#ffffff;fill-opacity:0.08;stroke:none;stroke-width:0.1"
       id="path16" />
  </g>
</svg>
